<?xml version="1.0" encoding="UTF-8" standalone="no"?>
<!-- Created with Inkscape (http://www.inkscape.org/) -->

<svg
   xmlns:dc="http://purl.org/dc/elements/1.1/"
   xmlns:cc="http://creativecommons.org/ns#"
   xmlns:rdf="http://www.w3.org/1999/02/22-rdf-syntax-ns#"
   xmlns:svg="http://www.w3.org/2000/svg"
   xmlns="http://www.w3.org/2000/svg"
   xmlns:xlink="http://www.w3.org/1999/xlink"
   xmlns:sodipodi="http://sodipodi.sourceforge.net/DTD/sodipodi-0.dtd"
   xmlns:inkscape="http://www.inkscape.org/namespaces/inkscape"
   width="1000"
   height="1500"
   id="svg3017"
   version="1.1"
   inkscape:version="0.48.4 r9939"
   sodipodi:docname="RHRT R Gear 2.png">
  <defs
     id="defs3019">
    <linearGradient
       inkscape:collect="always"
       id="linearGradient3079">
      <stop
         style="stop-color:#000000;stop-opacity:1;"
         offset="0"
         id="stop3081" />
      <stop
         style="stop-color:#000000;stop-opacity:0;"
         offset="1"
         id="stop3083" />
    </linearGradient>
    <linearGradient
       inkscape:collect="always"
       xlink:href="#linearGradient3079"
       id="linearGradient3085"
       x1="249.50768"
       y1="695.77832"
       x2="344.46201"
       y2="696.28339"
       gradientUnits="userSpaceOnUse" />
  </defs>
  <sodipodi:namedview
     id="base"
     pagecolor="#ffffff"
     bordercolor="#666666"
     borderopacity="1.0"
     inkscape:pageopacity="0.0"
     inkscape:pageshadow="2"
     inkscape:zoom="0.5"
     inkscape:cx="300.47669"
     inkscape:cy="681.57143"
     inkscape:document-units="px"
     inkscape:current-layer="layer1"
     showgrid="false"
     inkscape:snap-midpoints="true"
     inkscape:window-width="1920"
     inkscape:window-height="1138"
     inkscape:window-x="-8"
     inkscape:window-y="-8"
     inkscape:window-maximized="1" />
  <metadata
     id="metadata3022">
    <rdf:RDF>
      <cc:Work
         rdf:about="">
        <dc:format>image/svg+xml</dc:format>
        <dc:type
           rdf:resource="http://purl.org/dc/dcmitype/StillImage" />
        <dc:title></dc:title>
      </cc:Work>
    </rdf:RDF>
  </metadata>
  <g
     inkscape:groupmode="layer"
     id="layer2"
     inkscape:label="Layer"
     transform="translate(0,447.63783)" />
  <g
     inkscape:label="Layer 1"
     inkscape:groupmode="layer"
     id="layer1"
     transform="translate(0,447.63783)">
    <path
       style="fill:#000000;fill-opacity:1;fill-rule:evenodd;stroke:#000000;stroke-width:2.89494944px;stroke-linecap:butt;stroke-linejoin:miter;stroke-opacity:1"
       d="m 132.24298,-230.63514 0,549.76899 -100.870882,0 100.870882,251.40826 0,323.23909 270.49683,0 0,-321.92832 c 13.41108,-17.04266 70.30713,-19.4989 95.09067,37.30975 l 130.263,284.61837 327.26635,0 L 663.00614,421.49187 C 593.46053,306.7655 495.08606,330.5424 402.73981,323.58524 l 0,-554.22038 z"
       id="rect4373"
       inkscape:connector-curvature="0"
       sodipodi:nodetypes="cccccccccccccc" />
    <path
       style="fill:none;stroke:#000000;stroke-width:2.89494944px;stroke-linecap:butt;stroke-linejoin:miter;stroke-opacity:1"
       d="m 130.75667,-230.63607 2.92432,549.77603 c -96.503217,0 -97.965395,0 -97.965395,0 90.654555,236.87155 90.654555,236.87155 90.654555,236.87155"
       id="path3077"
       inkscape:connector-curvature="0" />
    <path
       style="font-size:270.47921753px;font-style:normal;font-weight:normal;fill:#9f3f3f;fill-opacity:1;fill-rule:nonzero;stroke:none;stroke-width:1px;marker:none;visibility:visible;display:inline;overflow:visible;enable-background:accumulate;font-family:Bitstream Vera Sans"
       d="m 439.5614,-232.08262 c 0,263.88757 0,0 0,263.88757 202.48471,-0.0677 227.13663,170.48 119.25301,279.01645 53.21586,-4.55058 106.5744,38.11407 183.96794,190.21024 l 40.12567,-40.12568 -35.65713,-64.1099 23.43702,-32.92127 73.04699,8.38991 21.70433,-52.43694 -57.99984,-45.68855 7.84276,-40.12568 70.21992,-20.06284 0,-56.35833 -70.7671,-20.06284 -8.38991,-40.12566 59.09417,-46.23571 -21.15718,-51.88979 -74.68847,8.93709 -22.88985,-33.468457 36.20429,-64.1099 -40.12567,-40.125643 -64.10989,36.20428 -33.46844,-23.43704 8.93708,-73.59414 -52.34577,-21.70433 -45.77975,58.54701 -40.12568,-7.84274 -20.0628,-70.76711 z"
       id="text2962"
       inkscape:connector-curvature="0"
       sodipodi:nodetypes="ccccccccccccccccccccccccccccc" />
  </g>
</svg>
