<?xml version="1.0" encoding="UTF-8" standalone="no"?>
<!-- Created with Inkscape (http://www.inkscape.org/) -->

<svg
   xmlns:dc="http://purl.org/dc/elements/1.1/"
   xmlns:cc="http://creativecommons.org/ns#"
   xmlns:rdf="http://www.w3.org/1999/02/22-rdf-syntax-ns#"
   xmlns:svg="http://www.w3.org/2000/svg"
   xmlns="http://www.w3.org/2000/svg"
   xmlns:xlink="http://www.w3.org/1999/xlink"
   xmlns:sodipodi="http://sodipodi.sourceforge.net/DTD/sodipodi-0.dtd"
   xmlns:inkscape="http://www.inkscape.org/namespaces/inkscape"
   width="3115.1157"
   height="3115.1157"
   id="svg2473"
   sodipodi:version="0.32"
   inkscape:version="0.48.4 r9939"
   version="1.0"
   sodipodi:docname="gear - Copy.svg"
   inkscape:output_extension="org.inkscape.output.svg.inkscape">
  <defs
     id="defs3">
    <linearGradient
       inkscape:collect="always"
       id="linearGradient4447">
      <stop
         style="stop-color:#000000;stop-opacity:1;"
         offset="0"
         id="stop4449" />
      <stop
         style="stop-color:#000000;stop-opacity:0;"
         offset="1"
         id="stop4451" />
    </linearGradient>
    <inkscape:perspective
       sodipodi:type="inkscape:persp3d"
       inkscape:vp_x="0 : 526.18109 : 1"
       inkscape:vp_y="0 : 1000 : 0"
       inkscape:vp_z="744.09448 : 526.18109 : 1"
       inkscape:persp3d-origin="372.04724 : 350.78739 : 1"
       id="perspective2479" />
    <linearGradient
       inkscape:collect="always"
       xlink:href="#linearGradient4447"
       id="linearGradient4455"
       x1="355.74194"
       y1="-1991.4286"
       x2="1320.0861"
       y2="-1991.4286"
       gradientUnits="userSpaceOnUse" />
  </defs>
  <sodipodi:namedview
     inkscape:document-units="mm"
     id="base"
     pagecolor="#ffffff"
     bordercolor="#666666"
     borderopacity="1.0"
     inkscape:pageopacity="0.0"
     inkscape:pageshadow="2"
     inkscape:zoom="0.49497475"
     inkscape:cx="905.05123"
     inkscape:cy="1970.0535"
     inkscape:current-layer="layer1"
     showgrid="false"
     units="in"
     inkscape:window-width="1920"
     inkscape:window-height="1138"
     inkscape:window-x="-8"
     inkscape:window-y="-8"
     inkscape:window-maximized="1" />
  <metadata
     id="metadata4">
    <rdf:RDF>
      <cc:Work
         rdf:about="">
        <dc:format>image/svg+xml</dc:format>
        <dc:type
           rdf:resource="http://purl.org/dc/dcmitype/StillImage" />
      </cc:Work>
    </rdf:RDF>
  </metadata>
  <g
     inkscape:label="Layer 1"
     inkscape:groupmode="layer"
     id="layer1"
     transform="translate(5.7142857,3376.5443)">
    <path
       style="font-size:270.47921753px;font-style:normal;font-weight:normal;fill:#9e3f3f;fill-opacity:1;fill-rule:nonzero;stroke:none;stroke-width:1px;marker:none;visibility:visible;display:inline;overflow:visible;enable-background:accumulate;font-family:Bitstream Vera Sans"
       d="m 595.72587,-2193.9827 c -2.8e-4,49.2693 12.58677,96.5604 37.76089,141.8733 25.17376,44.9536 60.23739,80.0175 105.1913,105.1911 45.31264,24.8146 92.60377,37.2218 141.87325,37.2216 49.62815,2e-4 96.91926,-12.407 141.87339,-37.2216 45.3124,-25.1736 80.556,-60.2375 105.7306,-105.1911 25.1733,-45.3129 37.7602,-92.604 37.761,-141.8733 0,-49.6282 -12.9473,-97.279 -38.8397,-142.9522 -25.894,-45.6723 -61.4973,-80.7361 -106.8097,-105.1912 -45.31379,-24.8138 -91.88555,-37.2209 -139.71559,-37.2217 -48.19064,0 -94.94228,12.4079 -140.25493,37.2217 -45.31351,24.4551 -80.73681,59.5189 -106.27014,105.1912 -25.53381,45.6732 -38.30065,93.324 -38.30037,142.9522 m 284.82544,-81.9953 c 14.02503,0 27.51106,3.5968 40.45818,10.7888 12.94608,6.8335 23.01567,16.9031 30.20877,30.209 7.55164,12.9469 11.32776,26.6127 11.32833,40.9975 0,14.0258 -3.59689,27.5119 -10.78886,40.4582 -7.1931,12.9468 -17.26269,23.0165 -30.20887,30.2087 -12.94702,7.1928 -26.61293,10.7892 -40.99755,10.7889 -14.02597,3e-4 -27.51197,-3.5961 -40.45825,-10.7889 -12.94692,-7.1922 -23.01651,-17.2619 -30.20867,-30.2087 -7.19302,-12.9463 -10.78924,-26.4324 -10.78887,-40.4582 -3.7e-4,-14.3848 3.59585,-28.0506 10.78887,-40.9975 7.19216,-13.3059 17.26175,-23.3755 30.20867,-30.209 13.30586,-7.192 26.79198,-10.7884 40.45825,-10.7888 m 305.32429,347.9403 -38.8398,38.8398 -62.0359,-34.5242 -32.9059,21.5776 9.1705,72.2852 -50.1682,21.0384 -44.77361,-57.7204 -38.83993,7.5522 -19.41983,69.0486 -54.48376,0 -19.41992,-68.5093 -38.83984,-7.0127 -44.23417,56.6416 -50.70765,-21.5778 8.0916,-70.6668 -32.36647,-22.1173 -61.49641,33.9849 -38.83983,-38.8398 34.52425,-62.0358 -21.5776,-32.3666 -72.28536,8.631 -21.03825,-50.1681 57.18092,-44.7738 -7.55222,-38.8398 -68.50915,-19.4198 0,-54.4837 67.96967,-19.42 7.01276,-38.8398 -56.10198,-44.2342 21.57772,-50.7077 70.66694,8.0918 22.11717,-31.8272 -33.98487,-62.0359 38.83983,-38.8397 62.03588,35.0636 32.36647,-22.117 -8.63107,-72.2854 50.16818,-20.4987 45.31311,57.1809 38.83985,-7.5521 18.88044,-69.0487 54.48376,0 19.41983,68.5091 38.83993,7.552 44.23421,-56.6412 50.7076,21.0383 -8.6311,71.2063 32.3665,22.6565 62.0359,-35.0636 38.8398,38.8397 -35.0637,62.0359 22.1171,32.3665 72.2854,-8.6311 20.4987,50.1681 -57.181,44.7738 8.0918,38.8398 68.5091,19.42 0,54.4837 -67.9697,19.4198 -7.5521,38.8398 56.1019,44.2343 -21.0383,50.7076 -70.6669,-8.0915 -22.6566,31.8271 34.5243,62.0358"
       id="text2962"
       inkscape:export-filename="C:\Documents and Settings\kinziejh\Desktop\gear.png"
       inkscape:export-xdpi="90"
       inkscape:export-ydpi="90"
       inkscape:connector-curvature="0"
       inkscape:transform-center-x="119.47485"
       inkscape:transform-center-y="-62.995797" />
    <path
       style="fill:#000000;fill-opacity:1;fill-rule:evenodd;stroke:url(#linearGradient4455);stroke-width:3.01181102000000010;stroke-linecap:butt;stroke-linejoin:round;stroke-opacity:1;stroke-miterlimit:4;stroke-dasharray:none"
       d="m 462.19581,-2578.0413 0,571.9887 -104.9479,0 104.9479,249.5217 0,348.3512 281.4294,0 0,-334.9395 c 22.4966,-9.188 41.209,-26.3652 98.934,38.8177 l 135.5277,299.4855 340.49319,-2.0791 -304.1697,-492.6623 c -72.35609,-119.3632 -174.70659,-94.6254 -270.78519,-101.8637 l 0,-576.6202 z"
       id="rect4373"
       inkscape:connector-curvature="0"
       sodipodi:nodetypes="cccccccccccccc" />
  </g>
</svg>
