<?xml version="1.0" encoding="UTF-8" standalone="no"?>
<!-- Created with Inkscape (http://www.inkscape.org/) -->

<svg
   xmlns:dc="http://purl.org/dc/elements/1.1/"
   xmlns:cc="http://creativecommons.org/ns#"
   xmlns:rdf="http://www.w3.org/1999/02/22-rdf-syntax-ns#"
   xmlns:svg="http://www.w3.org/2000/svg"
   xmlns="http://www.w3.org/2000/svg"
   xmlns:xlink="http://www.w3.org/1999/xlink"
   xmlns:sodipodi="http://sodipodi.sourceforge.net/DTD/sodipodi-0.dtd"
   xmlns:inkscape="http://www.inkscape.org/namespaces/inkscape"
   width="1000"
   height="1500"
   id="svg3017"
   version="1.1"
   inkscape:version="0.48.4 r9939"
   sodipodi:docname="RHRT R Gear 2.svg">
  <defs
     id="defs3019">
    <linearGradient
       inkscape:collect="always"
       id="linearGradient3079">
      <stop
         style="stop-color:#000000;stop-opacity:1;"
         offset="0"
         id="stop3081" />
      <stop
         style="stop-color:#000000;stop-opacity:0;"
         offset="1"
         id="stop3083" />
    </linearGradient>
    <linearGradient
       inkscape:collect="always"
       xlink:href="#linearGradient3079"
       id="linearGradient3085"
       x1="249.50768"
       y1="695.77832"
       x2="344.46201"
       y2="696.28339"
       gradientUnits="userSpaceOnUse" />
  </defs>
  <sodipodi:namedview
     id="base"
     pagecolor="#ffffff"
     bordercolor="#666666"
     borderopacity="1.0"
     inkscape:pageopacity="0.0"
     inkscape:pageshadow="2"
     inkscape:zoom="0.5"
     inkscape:cx="-11.52331"
     inkscape:cy="965.16141"
     inkscape:document-units="px"
     inkscape:current-layer="layer1"
     showgrid="false"
     inkscape:snap-midpoints="true"
     inkscape:window-width="1920"
     inkscape:window-height="1107"
     inkscape:window-x="-8"
     inkscape:window-y="23"
     inkscape:window-maximized="1" />
  <metadata
     id="metadata3022">
    <rdf:RDF>
      <cc:Work
         rdf:about="">
        <dc:format>image/svg+xml</dc:format>
        <dc:type
           rdf:resource="http://purl.org/dc/dcmitype/StillImage" />
        <dc:title></dc:title>
      </cc:Work>
    </rdf:RDF>
  </metadata>
  <g
     inkscape:groupmode="layer"
     id="layer2"
     inkscape:label="Layer"
     transform="translate(0,447.63783)" />
  <g
     inkscape:label="Layer 1"
     inkscape:groupmode="layer"
     id="layer1"
     transform="translate(0,447.63783)">
    <path
       style="fill:#000000;fill-opacity:1;fill-rule:evenodd;stroke:#000000;stroke-width:2.89494944px;stroke-linecap:butt;stroke-linejoin:miter;stroke-opacity:1"
       d="m 132.24298,-230.63514 0,549.76899 -100.870882,0 100.870882,251.40826 0,323.23909 270.49683,0 0,-321.92832 c 13.41108,-17.04266 70.30713,-19.4989 95.09067,37.30975 l 130.263,284.61837 327.26635,0 L 663.00614,421.49187 C 593.46053,306.7655 495.08606,330.5424 402.73981,323.58524 l 0,-554.22038 z"
       id="rect4373"
       inkscape:connector-curvature="0"
       sodipodi:nodetypes="cccccccccccccc" />
    <path
       style="fill:none;stroke:#000000;stroke-width:2.89494944px;stroke-linecap:butt;stroke-linejoin:miter;stroke-opacity:1"
       d="m 130.75667,-230.63607 2.92432,549.77603 c -96.503217,0 -97.965395,0 -97.965395,0 90.654555,236.87155 90.654555,236.87155 90.654555,236.87155"
       id="path3077"
       inkscape:connector-curvature="0" />
    <path
       style="font-size:270.47921753px;font-style:normal;font-weight:normal;fill:#9f3f3f;fill-opacity:1;fill-rule:nonzero;stroke:none;stroke-width:1px;marker:none;visibility:visible;display:inline;overflow:visible;enable-background:accumulate;font-family:Bitstream Vera Sans"
       d="m 437.5614,-304.08262 c 0,293.403816 0,0 0,293.403816 225.13295,-0.07527 252.54222,189.548464 132.59165,310.224884 69.0281,25.746 110.00094,94.18501 146.00304,160.71508 10.03715,18.54815 -4,0 58.54201,50.77048 l 44.61379,-44.6138 -39.64544,-71.2807 26.05849,-36.60356 81.21741,9.32833 24.13199,-58.30209 -64.48721,-50.79889 8.71999,-44.6138 78.07413,-22.3069 0,-62.6621 -78.68252,-22.3069 -9.32833,-44.613781 65.70394,-51.407248 -23.52364,-57.693746 -83.04249,9.936718 -25.45012,-37.211958 40.2538,-71.280695 -44.61379,-44.61376 -71.28069,40.25379 -37.21193,-26.05851 9.9367,-81.82577 -58.20073,-24.13199 -50.90028,65.09559 -44.61381,-8.71997 -22.30685,-78.68252 z"
       id="text2962"
       inkscape:connector-curvature="0"
       sodipodi:nodetypes="cccscccccccccccccccccccccccccc" />
  </g>
</svg>
