<?xml version="1.0" encoding="UTF-8" standalone="no"?>
<!-- Created with Inkscape (http://www.inkscape.org/) -->

<svg
   xmlns:dc="http://purl.org/dc/elements/1.1/"
   xmlns:cc="http://creativecommons.org/ns#"
   xmlns:rdf="http://www.w3.org/1999/02/22-rdf-syntax-ns#"
   xmlns:svg="http://www.w3.org/2000/svg"
   xmlns="http://www.w3.org/2000/svg"
   xmlns:sodipodi="http://sodipodi.sourceforge.net/DTD/sodipodi-0.dtd"
   xmlns:inkscape="http://www.inkscape.org/namespaces/inkscape"
   width="2048"
   height="2048"
   id="svg2473"
   sodipodi:version="0.32"
   inkscape:version="0.48.4 r9939"
   version="1.0"
   sodipodi:docname="RHRT Gear.svg"
   inkscape:output_extension="org.inkscape.output.svg.inkscape"
   inkscape:export-filename="C:\Users\whitemrj\Downloads\New folder\RHRT Gear.png"
   inkscape:export-xdpi="90"
   inkscape:export-ydpi="90">
  <defs
     id="defs3">
    <inkscape:perspective
       sodipodi:type="inkscape:persp3d"
       inkscape:vp_x="0 : 526.18109 : 1"
       inkscape:vp_y="0 : 1000 : 0"
       inkscape:vp_z="744.09448 : 526.18109 : 1"
       inkscape:persp3d-origin="372.04724 : 350.78739 : 1"
       id="perspective2479" />
  </defs>
  <sodipodi:namedview
     inkscape:document-units="mm"
     id="base"
     pagecolor="#ffffff"
     bordercolor="#666666"
     borderopacity="1.0"
     inkscape:pageopacity="0.0"
     inkscape:pageshadow="2"
     inkscape:zoom="0.28732866"
     inkscape:cx="626.26432"
     inkscape:cy="959.62228"
     inkscape:current-layer="layer1"
     showgrid="false"
     units="px"
     inkscape:window-width="1920"
     inkscape:window-height="1153"
     inkscape:window-x="-4"
     inkscape:window-y="-4"
     inkscape:snap-page="true"
     inkscape:snap-bbox="true"
     inkscape:window-maximized="0" />
  <metadata
     id="metadata4">
    <rdf:RDF>
      <cc:Work
         rdf:about="">
        <dc:format>image/svg+xml</dc:format>
        <dc:type
           rdf:resource="http://purl.org/dc/dcmitype/StillImage" />
        <dc:title></dc:title>
      </cc:Work>
    </rdf:RDF>
  </metadata>
  <g
     inkscape:label="Layer 1"
     inkscape:groupmode="layer"
     id="layer1"
     transform="translate(5.7142857,2309.4286)">
    <path
       style="font-size:270.47921753px;font-style:normal;font-weight:normal;fill:#9e3f3f;fill-opacity:1;fill-rule:nonzero;stroke:none;stroke-width:1px;marker:none;visibility:visible;display:inline;overflow:visible;enable-background:accumulate;font-family:Bitstream Vera Sans"
       d="M 0 0 L 0 413.96875 C 72.360932 413.74293 141.14203 395.51866 206.3125 359.3125 C 271.8898 322.8812 322.8766 271.8942 359.3125 206.3125 C 395.7427 140.7348 413.96875 72.4215 413.96875 1.375 C 413.96873 0.91755744 413.97028 0.45715553 413.96875 0 L 0 0 z M 1444.125 0 C 1444.1254 0.45835095 1444.125 0.91658243 1444.125 1.375 C 1444.1211 250.9439 1380.356 490.4724 1252.8438 720 C 1125.3239 947.7084 946.80695 1125.3285 717.28125 1252.8438 C 489.9862 1378.3097 250.88468 1441.1462 0 1441.375 L 0 2048 L 138 2048 L 236.375 1698.25 L 433.09375 1660 L 659.90625 1952.375 L 914.03125 1845.7812 L 867.5625 1479.6562 L 1034.25 1370.3438 L 1348.4688 1545.2188 L 1545.2188 1348.4688 L 1370.3438 1034.25 L 1485.0938 873.03125 L 1843.0625 914.03125 L 1949.625 657.15625 L 1665.4375 433.09375 L 1703.7188 236.375 L 2048 138 L 2048 0 L 1444.125 0 z "
       transform="translate(-5.7142857,-2309.4286)"
       id="text2962" />
  </g>
</svg>
