<?xml version="1.0" encoding="UTF-8" standalone="no"?>
<!-- Created with Inkscape (http://www.inkscape.org/) -->

<svg
   xmlns:osb="http://www.openswatchbook.org/uri/2009/osb"
   xmlns:dc="http://purl.org/dc/elements/1.1/"
   xmlns:cc="http://creativecommons.org/ns#"
   xmlns:rdf="http://www.w3.org/1999/02/22-rdf-syntax-ns#"
   xmlns:svg="http://www.w3.org/2000/svg"
   xmlns="http://www.w3.org/2000/svg"
   xmlns:xlink="http://www.w3.org/1999/xlink"
   xmlns:sodipodi="http://sodipodi.sourceforge.net/DTD/sodipodi-0.dtd"
   xmlns:inkscape="http://www.inkscape.org/namespaces/inkscape"
   width="1200"
   height="650"
   id="svg2"
   version="1.1"
   inkscape:version="0.48.4 r9939"
   sodipodi:docname="New Robotics Team Logo 2.0.svg">
  <defs
     id="defs4">
    <linearGradient
       inkscape:collect="always"
       id="linearGradient3924">
      <stop
         style="stop-color:#999999;stop-opacity:1;"
         offset="0"
         id="stop3926" />
      <stop
         style="stop-color:#cccccc;stop-opacity:1"
         offset="1"
         id="stop3928" />
    </linearGradient>
    <linearGradient
       inkscape:collect="always"
       id="linearGradient3916">
      <stop
         style="stop-color:#999999;stop-opacity:1;"
         offset="0"
         id="stop3918" />
      <stop
         style="stop-color:#cccccc;stop-opacity:1"
         offset="1"
         id="stop3920" />
    </linearGradient>
    <linearGradient
       inkscape:collect="always"
       id="linearGradient3908">
      <stop
         style="stop-color:#999999;stop-opacity:1;"
         offset="0"
         id="stop3910" />
      <stop
         style="stop-color:#cccccc;stop-opacity:1"
         offset="1"
         id="stop3912" />
    </linearGradient>
    <linearGradient
       inkscape:collect="always"
       id="linearGradient3900">
      <stop
         style="stop-color:#4d4d4d;stop-opacity:1"
         offset="0"
         id="stop3902" />
      <stop
         style="stop-color:#808080;stop-opacity:1"
         offset="1"
         id="stop3904" />
    </linearGradient>
    <linearGradient
       inkscape:collect="always"
       id="linearGradient3892">
      <stop
         style="stop-color:#cccccc;stop-opacity:1"
         offset="0"
         id="stop3894" />
      <stop
         style="stop-color:#808080;stop-opacity:1"
         offset="1"
         id="stop3896" />
    </linearGradient>
    <linearGradient
       inkscape:collect="always"
       id="linearGradient3884">
      <stop
         style="stop-color:#ff0000;stop-opacity:1"
         offset="0"
         id="stop3886" />
      <stop
         style="stop-color:#000000;stop-opacity:1"
         offset="1"
         id="stop3888" />
    </linearGradient>
    <linearGradient
       inkscape:collect="always"
       id="linearGradient4051">
      <stop
         style="stop-color:#9e9b9b;stop-opacity:1"
         offset="0"
         id="stop4053" />
      <stop
         style="stop-color:#dcdcdc;stop-opacity:1"
         offset="1"
         id="stop4055" />
    </linearGradient>
    <linearGradient
       inkscape:collect="always"
       id="linearGradient4027">
      <stop
         style="stop-color:#ffffff;stop-opacity:1;"
         offset="0"
         id="stop4029" />
      <stop
         style="stop-color:#ffffff;stop-opacity:0;"
         offset="1"
         id="stop4031" />
    </linearGradient>
    <linearGradient
       inkscape:collect="always"
       id="linearGradient4019">
      <stop
         style="stop-color:#000000;stop-opacity:1;"
         offset="0"
         id="stop4021" />
      <stop
         style="stop-color:#000000;stop-opacity:0;"
         offset="1"
         id="stop4023" />
    </linearGradient>
    <linearGradient
       id="linearGradient4009"
       osb:paint="solid">
      <stop
         style="stop-color:#6c6c6c;stop-opacity:1;"
         offset="0"
         id="stop4011" />
    </linearGradient>
    <linearGradient
       inkscape:collect="always"
       id="linearGradient3974">
      <stop
         style="stop-color:#4d4d4d;stop-opacity:1"
         offset="0"
         id="stop3976" />
      <stop
         style="stop-color:#cccccc;stop-opacity:0.533"
         offset="1"
         id="stop3978" />
    </linearGradient>
    <linearGradient
       inkscape:collect="always"
       id="linearGradient3833">
      <stop
         style="stop-color:#ffa8a8;stop-opacity:0.58"
         offset="0"
         id="stop3835" />
      <stop
         style="stop-color:#9f3f3f;stop-opacity:1"
         offset="1"
         id="stop3837" />
    </linearGradient>
    <linearGradient
       inkscape:collect="always"
       id="linearGradient3825">
      <stop
         style="stop-color:#9f3f3f;stop-opacity:1"
         offset="0"
         id="stop3827" />
      <stop
         style="stop-color:#ffa8a8;stop-opacity:0.655"
         offset="1"
         id="stop3829" />
    </linearGradient>
    <linearGradient
       inkscape:collect="always"
       id="linearGradient3815">
      <stop
         style="stop-color:#9f3f3f;stop-opacity:1"
         offset="0"
         id="stop3817" />
      <stop
         style="stop-color:#ffa8a8;stop-opacity:0.588"
         offset="1"
         id="stop3819" />
    </linearGradient>
    <linearGradient
       inkscape:collect="always"
       id="linearGradient3792">
      <stop
         style="stop-color:#9f3f3f;stop-opacity:1"
         offset="0"
         id="stop3794" />
      <stop
         style="stop-color:#ffa8a8;stop-opacity:0.3"
         offset="1"
         id="stop3796" />
    </linearGradient>
    <linearGradient
       inkscape:collect="always"
       xlink:href="#linearGradient3792"
       id="linearGradient3850"
       gradientUnits="userSpaceOnUse"
       x1="695"
       y1="637.36218"
       x2="730"
       y2="627.36218" />
    <radialGradient
       inkscape:collect="always"
       xlink:href="#linearGradient3815"
       id="radialGradient3852"
       gradientUnits="userSpaceOnUse"
       gradientTransform="matrix(2.1658888,-0.36098238,2.1885396,13.131202,-1237.659,-4587.4155)"
       cx="344.3833"
       cy="387.38184"
       fx="344.3833"
       fy="387.38184"
       r="27.70226" />
    <radialGradient
       inkscape:collect="always"
       xlink:href="#linearGradient3833"
       id="radialGradient3854"
       gradientUnits="userSpaceOnUse"
       gradientTransform="matrix(-0.23617723,-0.14339437,1.4853537,-2.446447,303.20574,2499.4337)"
       cx="1081.7089"
       cy="691.59912"
       fx="1081.7089"
       fy="691.59912"
       r="57.225745" />
    <linearGradient
       inkscape:collect="always"
       xlink:href="#linearGradient3825"
       id="linearGradient3856"
       gradientUnits="userSpaceOnUse"
       x1="905"
       y1="652.36218"
       x2="980"
       y2="647.36218" />
    <linearGradient
       inkscape:collect="always"
       xlink:href="#linearGradient3974"
       id="linearGradient4050"
       gradientUnits="userSpaceOnUse"
       gradientTransform="translate(-6,0)"
       x1="365"
       y1="917.36218"
       x2="375"
       y2="897.36218" />
    <linearGradient
       inkscape:collect="always"
       xlink:href="#linearGradient3974"
       id="linearGradient4177"
       gradientUnits="userSpaceOnUse"
       gradientTransform="translate(-6,0)"
       x1="365"
       y1="917.36218"
       x2="375"
       y2="897.36218" />
    <linearGradient
       inkscape:collect="always"
       xlink:href="#linearGradient3792"
       id="linearGradient4202"
       gradientUnits="userSpaceOnUse"
       x1="695"
       y1="637.36218"
       x2="730"
       y2="627.36218" />
    <radialGradient
       inkscape:collect="always"
       xlink:href="#linearGradient3815"
       id="radialGradient4204"
       gradientUnits="userSpaceOnUse"
       gradientTransform="matrix(2.1658888,-0.36098238,2.1885396,13.131202,-1237.659,-4587.4155)"
       cx="344.3833"
       cy="387.38184"
       fx="344.3833"
       fy="387.38184"
       r="27.70226" />
    <radialGradient
       inkscape:collect="always"
       xlink:href="#linearGradient3833"
       id="radialGradient4206"
       gradientUnits="userSpaceOnUse"
       gradientTransform="matrix(-0.23617723,-0.14339437,1.4853537,-2.446447,303.20574,2499.4337)"
       cx="1081.7089"
       cy="691.59912"
       fx="1081.7089"
       fy="691.59912"
       r="57.225745" />
    <linearGradient
       inkscape:collect="always"
       xlink:href="#linearGradient3825"
       id="linearGradient4208"
       gradientUnits="userSpaceOnUse"
       x1="905"
       y1="652.36218"
       x2="980"
       y2="647.36218" />
    <linearGradient
       inkscape:collect="always"
       xlink:href="#linearGradient4009"
       id="linearGradient4017"
       x1="420"
       y1="370"
       x2="425"
       y2="315"
       gradientUnits="userSpaceOnUse"
       gradientTransform="matrix(1.331969,0,0,0.66013729,78.025634,635.78966)" />
    <linearGradient
       inkscape:collect="always"
       xlink:href="#linearGradient4019"
       id="linearGradient4025"
       x1="420"
       y1="370"
       x2="425"
       y2="315"
       gradientUnits="userSpaceOnUse"
       gradientTransform="matrix(1.331969,0,0,0.66013729,78.025634,635.78966)" />
    <linearGradient
       inkscape:collect="always"
       xlink:href="#linearGradient4027"
       id="linearGradient4033"
       x1="105"
       y1="737.36218"
       x2="80"
       y2="842.36218"
       gradientUnits="userSpaceOnUse" />
    <linearGradient
       inkscape:collect="always"
       xlink:href="#linearGradient4051"
       id="linearGradient4057"
       x1="70"
       y1="782.36218"
       x2="205"
       y2="712.36218"
       gradientUnits="userSpaceOnUse" />
    <radialGradient
       inkscape:collect="always"
       xlink:href="#linearGradient3884"
       id="radialGradient3890"
       cx="720.18823"
       cy="327.91287"
       fx="720.18823"
       fy="327.91287"
       r="11.335235"
       gradientTransform="matrix(0.55213906,-0.29503703,0.29060107,0.54383749,227.25234,362.06376)"
       gradientUnits="userSpaceOnUse" />
    <radialGradient
       inkscape:collect="always"
       xlink:href="#linearGradient3892"
       id="radialGradient3898"
       cx="1045.5898"
       cy="615.25018"
       fx="1045.5898"
       fy="615.25018"
       r="26.546774"
       gradientTransform="matrix(0.9805804,-0.19611754,0.18834822,0.94173412,-96.166144,238.0186)"
       gradientUnits="userSpaceOnUse" />
    <radialGradient
       inkscape:collect="always"
       xlink:href="#linearGradient3900"
       id="radialGradient3906"
       cx="1073.5828"
       cy="677.90784"
       fx="1073.5828"
       fy="677.90784"
       r="26.546805"
       gradientTransform="matrix(0.56503992,-0.94173488,0.58231858,0.34939052,58.624544,1441.538)"
       gradientUnits="userSpaceOnUse" />
    <linearGradient
       inkscape:collect="always"
       xlink:href="#linearGradient3908"
       id="linearGradient3914"
       x1="665"
       y1="892.36218"
       x2="665"
       y2="882.36218"
       gradientUnits="userSpaceOnUse" />
    <linearGradient
       inkscape:collect="always"
       xlink:href="#linearGradient3916"
       id="linearGradient3922"
       x1="605"
       y1="892.36218"
       x2="605"
       y2="882.36218"
       gradientUnits="userSpaceOnUse" />
    <linearGradient
       inkscape:collect="always"
       xlink:href="#linearGradient3924"
       id="linearGradient3930"
       x1="545"
       y1="892.36218"
       x2="545"
       y2="882.36218"
       gradientUnits="userSpaceOnUse" />
  </defs>
  <sodipodi:namedview
     id="base"
     pagecolor="#ffffff"
     bordercolor="#666666"
     borderopacity="1.0"
     inkscape:pageopacity="0.0"
     inkscape:pageshadow="2"
     inkscape:zoom="1"
     inkscape:cx="601.15751"
     inkscape:cy="345.14041"
     inkscape:document-units="px"
     inkscape:current-layer="layer1"
     showgrid="true"
     showguides="true"
     inkscape:guide-bbox="true"
     inkscape:window-width="1920"
     inkscape:window-height="1018"
     inkscape:window-x="-8"
     inkscape:window-y="-8"
     inkscape:window-maximized="1"
     inkscape:snap-nodes="false"
     inkscape:snap-bbox="false">
    <inkscape:grid
       type="xygrid"
       id="grid3058"
       empspacing="5"
       visible="true"
       enabled="true"
       snapvisiblegridlinesonly="true" />
  </sodipodi:namedview>
  <metadata
     id="metadata7">
    <rdf:RDF>
      <cc:Work
         rdf:about="">
        <dc:format>image/svg+xml</dc:format>
        <dc:type
           rdf:resource="http://purl.org/dc/dcmitype/StillImage" />
        <dc:title />
      </cc:Work>
    </rdf:RDF>
  </metadata>
  <g
     inkscape:label="Layer 1"
     inkscape:groupmode="layer"
     id="layer1"
     transform="translate(0,-402.36218)">
    <rect
       style="fill:#000000;fill-opacity:1"
       id="rect3936"
       width="17.567856"
       height="39.101593"
       x="133.77623"
       y="798.88605" />
    <path
       style="fill:none;stroke:#000000;stroke-width:5.5;stroke-linecap:butt;stroke-linejoin:miter;stroke-miterlimit:4;stroke-opacity:1;stroke-dasharray:none"
       d="m 164.24451,975.89247 c 7.01216,-9.00239 17.66221,-33.03627 5.12649,-53.47502 -13.9018,-22.66606 -14.65913,-18.4502 -44.37087,-43.75227 -20.81032,-17.72175 -30.19867,-45.75921 4e-5,-79.63781"
       id="path3962"
       inkscape:connector-curvature="0"
       sodipodi:nodetypes="cssc" />
    <rect
       style="fill:#999999;fill-opacity:1"
       id="rect3934"
       width="35.245525"
       height="152.10263"
       x="124.93739"
       y="825.11407" />
    <path
       style="fill:#999999;fill-opacity:1;stroke:none"
       d="m 142.31,742.16596 c -99.156217,0 -125.9975,27.05169 -125.9975,27.05169 l 25.25,20.17578 202,0 25.25,-20.17578 c 0,0 -27.34628,-27.05169 -126.5025,-27.05169 z"
       id="path3224"
       inkscape:connector-curvature="0" />
    <path
       style="fill:#9f3f3f;fill-opacity:1;stroke:none"
       d="m 106.27246,787.79298 72.57538,0 -24.1918,21.87462 -24.19178,0 z"
       id="rect3954"
       inkscape:connector-curvature="0"
       sodipodi:nodetypes="ccccc" />
    <path
       sodipodi:nodetypes="ccccc"
       inkscape:connector-curvature="0"
       id="path3957"
       d="m 17.55865,769.37712 250.003,-2.5e-4 -25.0005,19.51625 -200.003,-3.6e-4 z"
       style="fill:url(#linearGradient4057);fill-opacity:1;stroke:none" />
    <path
       style="fill:url(#linearGradient4033);fill-opacity:1;stroke:none"
       inkscape:transform-center-y="-18.208214"
       d="m 142.32421,743.16506 c 98.17447,0 125.23744,26.21212 125.23744,26.21212 l -250.003,0 c 0,0 26.59109,-26.21212 124.76556,-26.21212 z"
       id="path3959"
       inkscape:connector-curvature="0"
       sodipodi:nodetypes="zccz" />
    <g
       id="g4038"
       transform="translate(-101.96035,-22.568756)">
      <path
         style="fill:#4d4d4d;fill-opacity:1"
         d="m 412.37075,898.75591 c -23.43729,-23.43728 -61.42896,-23.41515 -84.86625,0.0221 -8.15298,8.15297 -13.45244,18.05137 -15.93317,28.50267 l 116.84323,0.57535 c -2.42229,-10.65577 -7.74611,-20.80245 -16.04381,-29.10016 z m 15.9553,56.36359 -116.88749,-0.57537 c 2.42045,10.66205 7.76383,20.77589 16.06596,29.07801 23.43729,23.43736 61.42894,23.45946 84.86623,0.0222 8.14954,-8.14955 13.47322,-18.07836 15.9553,-28.5248 z"
         id="path3969"
         inkscape:connector-curvature="0" />
      <path
         sodipodi:nodetypes="zccz"
         inkscape:connector-curvature="0"
         id="path3971"
         d="m 369.92656,895.0297 c 28.28757,10e-6 35.41659,21.39182 35.41659,21.39182 l -70.83318,-10e-6 c 0,0 7.12902,-21.39181 35.41659,-21.39181 z"
         inkscape:transform-center-y="-10.223888"
         style="fill:url(#linearGradient4177);fill-opacity:1;stroke:none" />
    </g>
    <path
       sodipodi:type="arc"
       style="fill:#666666;fill-opacity:1;stroke:none"
       id="path4007"
       sodipodi:cx="743.16925"
       sodipodi:cy="518.47815"
       sodipodi:rx="50.204582"
       sodipodi:ry="50.204582"
       d="m 793.37383,518.47815 c 0,27.72722 -22.47735,50.20458 -50.20458,50.20458 -27.72722,0 -50.20458,-22.47736 -50.20458,-50.20458 0,-27.72723 22.47736,-50.20458 50.20458,-50.20458 27.72723,0 50.20458,22.47735 50.20458,50.20458 z"
       transform="matrix(1.1952993,0,0,1.1952993,-478.14815,298.8961)" />
    <path
       style="fill:#000000;fill-opacity:1;stroke:none"
       d="m 405.17716,858.83581 c -7.31702,0.6007 -14.2564,2.51174 -20.59375,5.5 l 3.5625,6.1875 -8.625,4.96875 -3.5625,-6.15625 c -5.87643,4.08318 -11.00226,9.19141 -15.09375,15.0625 l 6.1875,3.5625 -5,8.65625 -6.1875,-3.5625 c -2.99051,6.33013 -4.89639,13.28176 -5.5,20.59375 l 7.125,0 0,9.96875 -7.125,0 c 0.60477,7.31399 2.51037,14.26057 5.5,20.59375 l 6.1875,-3.59375 5,8.65625 -6.1875,3.5625 c 4.08626,5.8759 9.19105,11.00209 15.0625,15.09375 l 3.5625,-6.1875 8.65625,5 -3.5625,6.1875 c 6.32943,2.99075 13.2818,4.89648 20.59375,5.49998 l 0,-7.12498 9.96875,0 0,7.12498 c 7.31612,-0.6049 14.25571,-2.53733 20.59375,-5.53123 l -3.5625,-6.15625 8.65625,-5 3.5625,6.15625 c 5.87208,-4.08796 10.97619,-9.18985 15.0625,-15.0625 l -6.15625,-3.5625 4.96875,-8.625 6.1875,3.5625 c 2.99318,-6.33314 4.89618,-13.27981 5.5,-20.59375 l -7.15625,0 0,-9.96875 7.15625,0 c -0.60777,-7.32708 -2.53072,-14.27715 -5.53125,-20.625 l -6.15625,3.5625 -4.96875,-8.625 6.15625,-3.5625 c -4.09419,-5.88456 -9.20239,-11.00363 -15.09375,-15.09375 l -3.5625,6.1875 -8.625,-4.96875 3.5625,-6.1875 c -6.33675,-2.99068 -13.28055,-4.89551 -20.59375,-5.5 l 0,7.125 -9.96875,0 0,-7.125 z"
       id="path3984"
       inkscape:connector-curvature="0" />
    <path
       sodipodi:type="arc"
       style="fill:#9f3f3f;fill-opacity:1;stroke:none"
       id="path4009"
       sodipodi:cx="726.75"
       sodipodi:cy="452.25"
       sodipodi:rx="30.25"
       sodipodi:ry="30.25"
       d="m 757,452.25 c 0,16.70661 -13.54339,30.25 -30.25,30.25 -16.70661,0 -30.25,-13.54339 -30.25,-30.25 0,-16.70661 13.54339,-30.25 30.25,-30.25 16.70661,0 30.25,13.54339 30.25,30.25 z"
       transform="translate(-316.58847,466.38267)" />
    <path
       sodipodi:type="arc"
       style="fill:#666666;fill-opacity:1;stroke:none"
       id="path4011"
       sodipodi:cx="706"
       sodipodi:cy="430"
       sodipodi:rx="25.5"
       sodipodi:ry="25.5"
       d="m 731.5,430 c 0,14.08326 -11.41674,25.5 -25.5,25.5 -14.08326,0 -25.5,-11.41674 -25.5,-25.5 0,-14.08326 11.41674,-25.5 25.5,-25.5 14.08326,0 25.5,11.41674 25.5,25.5 z"
       transform="matrix(0.85294118,0,0,0.85294118,-192.01494,551.86797)" />
    <path
       style="fill:#666666;fill-opacity:1;stroke:none"
       d="m 415.87241,897.62205 62.66724,17.86742 0,63.153 -79.46875,-41.30925 z"
       id="rect4023"
       inkscape:connector-curvature="0"
       sodipodi:nodetypes="ccccc" />
    <path
       sodipodi:type="star"
       style="fill:#b3b3b3;fill-opacity:1;stroke:none"
       id="path4019"
       sodipodi:sides="6"
       sodipodi:cx="562"
       sodipodi:cy="371"
       sodipodi:r1="19.557608"
       sodipodi:r2="16.937386"
       sodipodi:arg1="0"
       sodipodi:arg2="0.52359878"
       inkscape:flatsided="true"
       inkscape:rounded="0"
       inkscape:randomized="0"
       d="m 581.55761,371 -9.77881,16.93739 -19.5576,0 L 542.44239,371 l 9.77881,-16.93739 19.5576,0 z"
       transform="matrix(0.55641678,0,0,0.55641678,97.4553,712.20205)" />
    <path
       style="fill:#999999;fill-opacity:1"
       d="m 478.53965,858.6232 11.24553,0 0,120.019 -11.24553,2.7e-4 z"
       id="rect4021"
       inkscape:connector-curvature="0"
       sodipodi:nodetypes="ccccc" />
    <path
       style="fill:url(#linearGradient4025);fill-opacity:1;stroke:url(#linearGradient4017);stroke-width:2.43802166;stroke-linejoin:miter;stroke-miterlimit:4;stroke-opacity:1"
       d="m 524.16442,861.12622 155.99512,0 c 3.74971,0 6.76842,3.01872 6.76842,6.76842 l 1.76777,9.10506 -1.76777,8.16608 c -0.79335,3.66481 -3.01871,6.76842 -6.76842,6.76842 l -155.99512,0 c -3.74971,0 -6.76842,-3.01872 -6.76842,-6.76842 l -2.47487,-7.81253 2.47487,-9.45861 c 0.94917,-3.62758 3.01871,-6.76842 6.76842,-6.76842 z"
       id="rect4007"
       inkscape:connector-curvature="0"
       sodipodi:nodetypes="ssscsssscss" />
    <path
       style="fill:url(#linearGradient3922);fill-opacity:1;stroke:none"
       d="m 590.66241,881.29538 23,0 0,34.61286 c 0,0 -5.05899,4.21262 -6.33677,8.12666 -1.27777,3.91404 -1.3299,54.60757 -1.3299,54.60757 l -7.66666,0 c 0,0 -0.35313,-50.69353 -1.6309,-54.60757 -1.27778,-3.91404 -6.03577,-8.12666 -6.03577,-8.12666 z"
       id="rect4029"
       inkscape:connector-curvature="0"
       sodipodi:nodetypes="cccccczcc" />
    <path
       sodipodi:nodetypes="cccccczcc"
       inkscape:connector-curvature="0"
       id="path4032"
       d="m 530.66241,881.29538 23,0 0,34.61286 c 0,0 -5.05899,4.21262 -6.33677,8.12666 -1.27777,3.91404 -1.3299,54.60757 -1.3299,54.60757 l -7.66666,0 c 0,0 -0.35313,-50.69353 -1.6309,-54.60757 -1.27778,-3.91404 -6.03577,-8.12666 -6.03577,-8.12666 z"
       style="fill:url(#linearGradient3930);fill-opacity:1;stroke:none" />
    <path
       sodipodi:nodetypes="cccccczcc"
       inkscape:connector-curvature="0"
       id="path4034"
       d="m 650.66241,881.29538 23,0 0,34.61286 c 0,0 -5.05899,4.21262 -6.33677,8.12666 -1.27777,3.91404 -1.3299,54.60757 -1.3299,54.60757 l -7.66666,0 c 0,0 -0.35313,-50.69353 -1.6309,-54.60757 -1.27778,-3.91404 -6.03577,-8.12666 -6.03577,-8.12666 z"
       style="fill:url(#linearGradient3914);fill-opacity:1;stroke:none" />
    <g
       id="g3043"
       transform="matrix(0.19787301,0,0,0.19787301,58.40782,457.60958)">
      <path
         sodipodi:nodetypes="cccccccccccccc"
         inkscape:connector-curvature="0"
         id="rect4373"
         d="m -104.12298,84.154013 0,549.769037 -100.87089,0 100.87089,251.4082 0,323.23915 270.49683,0 0,-321.92835 c 13.41108,-17.0427 70.30713,-19.4989 95.09067,37.3097 l 130.263,284.61845 327.26635,0 L 426.64018,736.28105 C 357.09457,621.55465 258.7201,645.33155 166.37385,638.37435 l 0,-554.220337 z"
         style="fill:#000000;fill-opacity:1;fill-rule:evenodd;stroke:#000000;stroke-width:2.89494944px;stroke-linecap:butt;stroke-linejoin:miter;stroke-opacity:1" />
      <path
         inkscape:connector-curvature="0"
         id="path3077"
         d="m -105.60929,84.153083 2.92432,549.776067 c -96.50322,0 -97.9654,0 -97.9654,0 90.65455,236.8715 90.65455,236.8715 90.65455,236.8715"
         style="fill:none;stroke:#000000;stroke-width:2.89494944px;stroke-linecap:butt;stroke-linejoin:miter;stroke-opacity:1" />
      <path
         sodipodi:nodetypes="cccscccccccccccccccccccccccccc"
         inkscape:connector-curvature="0"
         id="text2962"
         d="m 201.19544,10.706533 c 0,293.403817 0,0 0,293.403817 225.13295,-0.0753 252.54222,189.54846 132.59165,310.2249 69.0281,25.746 110.00094,94.185 146.00304,160.7151 10.03715,18.5481 -4,0 58.54201,50.7704 l 44.61379,-44.6138 -39.64544,-71.2807 26.05849,-36.6035 81.21741,9.3283 24.13199,-58.3021 -64.48721,-50.79887 8.71999,-44.6138 78.07413,-22.3069 0,-62.6621 -78.68252,-22.3069 -9.32833,-44.61378 65.70394,-51.40725 -23.52364,-57.69375 -83.04249,9.93672 -25.45012,-37.21196 40.2538,-71.28069 -44.61379,-44.61376 -71.28069,40.25379 -37.21193,-26.05851 9.9367,-81.825767 -58.20073,-24.13199 -50.90028,65.09559 -44.61381,-8.71997 -22.30685,-78.68252 z"
         style="font-size:270.47921753px;font-style:normal;font-weight:normal;fill:#9f3f3f;fill-opacity:1;fill-rule:nonzero;stroke:none;stroke-width:1px;marker:none;visibility:visible;display:inline;overflow:visible;enable-background:accumulate;font-family:Bitstream Vera Sans" />
    </g>
    <g
       id="g3068"
       transform="matrix(1.0119238,0,0,1.0119238,-102.55953,-12.991416)">
      <path
         transform="translate(-101,441.36218)"
         style="fill:#808080;fill-opacity:1"
         d="m 502.23813,260.30219 -68.47627,0 L 399.52373,201 l 34.23814,-59.30219 68.47627,0 L 536.47627,201 z"
         id="path3054"
         inkscape:connector-curvature="0" />
      <path
         transform="translate(-3,392.36218)"
         d="m 400,250 c 0,16.56854 -13.43146,30 -30,30 -16.56854,0 -30,-13.43146 -30,-30 0,-16.56854 13.43146,-30 30,-30 16.56854,0 30,13.43146 30,30 z"
         sodipodi:ry="30"
         sodipodi:rx="30"
         sodipodi:cy="250"
         sodipodi:cx="370"
         id="path3066"
         style="fill:#ffffff;fill-opacity:1"
         sodipodi:type="arc" />
    </g>
    <g
       id="g3967"
       transform="translate(-20,0.70710754)">
      <g
         transform="matrix(0.10785784,0,0,0.10785784,347.69713,505.5312)"
         id="g3841">
        <g
           id="g3864"
           transform="matrix(8.9155955,0,0,8.9155955,-6045.2908,-5206.1058)">
          <path
             style="fill:#9f3f3f;fill-opacity:1"
             d="m 765.40443,644.67792 c -0.12369,-0.002 -0.25118,-10e-4 -0.37921,0.004 -3.36871,0.14322 -5.10152,4.06729 -6.82304,4.28077 -0.98648,0.12206 -2.94871,-4.76843 -7.28362,-3.32342 -4.33502,1.44495 -4.33312,5.7816 -5.8116,6.09153 l 0,29.23838 c 0.46926,-1.04697 1.7066,-0.88026 2.92159,-2.09525 2.89001,-2.88996 2.89001,-4.33496 2.89001,-4.33496 0,0 2.88996,2.89001 5.77992,1.445 2.88996,-1.445 2.88996,-4.33502 2.88996,-4.33502 0,0 1.445,4.33502 5.77997,4.33502 4.33496,0 5.77992,-4.33502 5.77992,-4.33502 0,0 1.445,4.33502 4.33496,4.33502 4.56944,0 4.33497,-2.89001 4.33497,-2.89001 -0.22026,1.00493 0,5.77997 2.88996,5.77997 3.23108,0 4.33496,-1.44495 4.33496,-1.44495 0,0 -1.02174,1.26962 0,4.33491 2.88996,8.66993 1.44501,1.44501 1.44501,2.89002 0,1.01024 -1.03862,4.29959 -1.03862,5.35996 0,1.31193 -0.11067,2.59804 -0.32984,3.84726 l 21.32258,0 c 0.1123,-1.27135 0.18065,-2.54672 0.18065,-3.84726 0,-3.1081 0.74052,-15.14886 0.0949,-19.80987 -0.37975,-2.74142 -1.58247,-1.58247 -2.89001,-2.88996 -1.44495,-1.445 0.85292,-4.67826 -1.44495,-7.22492 -2.4813,-2.74994 -5.77998,0 -7.22498,-1.44501 -1.44495,-1.445 0.51103,-4.37874 -2.88991,-7.22492 -3.00697,-2.51656 -7.77344,0.65957 -8.66993,0 -1.16925,-0.86025 -0.63874,-4.88327 -5.77997,-5.77992 -3.41581,-0.59578 -6.33305,3.03942 -7.55005,2.98023 -1.4635,-0.0711 -3.02884,-3.86402 -6.86367,-3.94209 z"
             id="path3076"
             inkscape:connector-curvature="0"
             sodipodi:nodetypes="ssssccscscscssscsssccssssssssss" />
        </g>
        <path
           style="fill:url(#linearGradient4202);fill-opacity:1"
           inkscape:transform-center-y="35"
           d="m 727,785.36218 c 0,0 -25.91581,-125.09044 -33.54081,-157.17378 -7.625,-32.08333 -28.70919,-80.32622 -28.70919,-80.32622 0,0 11.71112,0.85767 19.70729,5.69469 7.99617,4.83702 28.01758,27.48729 28.01758,27.48729 z"
           id="path3021"
           inkscape:connector-curvature="0"
           sodipodi:nodetypes="czczcc" />
        <path
           transform="translate(453.96255,267.30478)"
           style="opacity:0.95132745;fill:url(#radialGradient4204);fill-opacity:1"
           inkscape:transform-center-x="3.8374081"
           inkscape:transform-center-y="18.809258"
           d="M 381.13055,308.46744 376.431,514.73093 c 0,0 -14.81364,-114.81566 -24.67869,-157.46613 -9.86504,-42.65047 -26.02628,-83.58745 -26.02628,-83.58745 0,0 12.06437,0.54109 22.98379,7.1702 10.91942,6.62911 32.42073,27.61989 32.42073,27.61989 z"
           id="path3803"
           inkscape:connector-curvature="0"
           sodipodi:nodetypes="cczczc" />
        <path
           style="opacity:0.95132745;fill:url(#radialGradient4206);fill-opacity:1"
           inkscape:transform-center-x="2.3479538"
           inkscape:transform-center-y="10.07536"
           d="m 1085.4088,668.75676 c 0,0 -28.8107,36.43428 -47.8859,64.129 -19.0753,27.69471 -66.56559,102.03928 -66.56559,102.03928 0,0 36.36539,-77.47178 50.41539,-108.52495 14.05,-31.05317 33.8845,-77.79405 33.8845,-77.79405 0,0 3.3506,16.45026 8.658,20.03547 5.3074,3.5852 21.4936,0.11525 21.4936,0.11525 z"
           id="path3805"
           inkscape:connector-curvature="0"
           sodipodi:nodetypes="czczczc" />
        <path
           style="opacity:0.95132745;fill:#000000;fill-opacity:1"
           inkscape:transform-center-x="0.20465025"
           inkscape:transform-center-y="11.312797"
           d="M 1159.6337,754.58628 983.99484,905.28215 1139.4076,743.69045 c 0,0 8.3665,6.01107 12.9042,6.83746 4.5377,0.82639 7.3219,4.05837 7.3219,4.05837 z"
           id="path3807"
           inkscape:connector-curvature="0"
           sodipodi:nodetypes="ccczc" />
        <path
           style="opacity:0.95132745;fill:url(#linearGradient4208);fill-opacity:1"
           inkscape:transform-center-x="-2.2101643"
           inkscape:transform-center-y="9.8994949"
           d="m 956.00835,599.81382 -49.67516,201.75705 c 0,0 7.0474,-135.92828 7.75481,-177.72479 0.70741,-41.7965 -3.51034,-73.05424 -3.51034,-73.05424 0,0 14.61226,3.24537 25.36787,11.814 10.7556,8.56863 20.06282,37.20798 20.06282,37.20798 z"
           id="path3809"
           inkscape:connector-curvature="0"
           sodipodi:nodetypes="cczczc" />
      </g>
      <rect
         transform="matrix(0.7362154,0.67674728,-0.67674728,0.7362154,0,0)"
         style="fill:#808080;fill-opacity:1"
         id="rect3074"
         width="35.245525"
         height="124.53419"
         x="741.71338"
         y="107.02574" />
      <rect
         y="461.36218"
         x="380"
         height="234.97017"
         width="35.245525"
         id="rect3072"
         style="fill:#000000;fill-opacity:1" />
      <path
         transform="matrix(0.53846154,0,0,0.53846154,33.35353,546.66987)"
         d="m 689.5,245.5 c 0,7.1797 -5.8203,13 -13,13 -7.1797,0 -13,-5.8203 -13,-13 0,-7.1797 5.8203,-13 13,-13 7.1797,0 13,5.8203 13,13 z"
         sodipodi:ry="13"
         sodipodi:rx="13"
         sodipodi:cy="245.5"
         sodipodi:cx="676.5"
         id="path3860"
         style="fill:#9f3f3f;fill-opacity:1"
         sodipodi:type="arc" />
      <path
         sodipodi:type="arc"
         style="fill:#9f3f3f;fill-opacity:1"
         id="path3862"
         sodipodi:cx="676.5"
         sodipodi:cy="245.5"
         sodipodi:rx="13"
         sodipodi:ry="13"
         d="m 689.5,245.5 c 0,7.1797 -5.8203,13 -13,13 -7.1797,0 -13,-5.8203 -13,-13 0,-7.1797 5.8203,-13 13,-13 7.1797,0 13,5.8203 13,13 z"
         transform="matrix(0.53846154,0,0,0.53846154,33.35353,445.54487)" />
      <path
         transform="matrix(0.53846154,0,0,0.53846154,111.76883,472.12203)"
         d="m 689.5,245.5 c 0,7.1797 -5.8203,13 -13,13 -7.1797,0 -13,-5.8203 -13,-13 0,-7.1797 5.8203,-13 13,-13 7.1797,0 13,5.8203 13,13 z"
         sodipodi:ry="13"
         sodipodi:rx="13"
         sodipodi:cy="245.5"
         sodipodi:cx="676.5"
         id="path3864"
         style="fill:#9f3f3f;fill-opacity:1"
         sodipodi:type="arc" />
    </g>
    <g
       id="g4069">
      <rect
         y="459.56946"
         x="692.08545"
         height="237.47"
         width="37.745998"
         id="rect4002"
         style="fill:#999999;fill-opacity:1" />
      <rect
         style="fill:#f2f2f2;fill-opacity:1"
         id="rect3877"
         width="35.245525"
         height="234.97017"
         x="693.33563"
         y="460.81937" />
      <rect
         style="fill:#808080;fill-opacity:1"
         id="rect4004"
         width="36.745998"
         height="154.47"
         x="559.93146"
         y="-788.19342"
         transform="matrix(0,1,-1,0,0,0)" />
      <rect
         transform="matrix(0,1,-1,0,0,0)"
         y="-787.44348"
         x="560.6817"
         height="152.97017"
         width="35.245525"
         id="rect3852"
         style="fill:#f2f2f2;fill-opacity:1" />
      <g
         id="g3986"
         style="fill:#808080;stroke:none"
         transform="matrix(1.0283808,0,0,1.0283808,-146.32323,-24.16962)">
        <g
           id="g3988"
           style="fill:#808080;stroke:none">
          <path
             id="path3990"
             d="m 812.75,550.61218 41.74553,0 0,70.47017 -41.74553,0 z"
             style="fill:#808080;fill-opacity:1;stroke:none"
             inkscape:connector-curvature="0" />
          <path
             id="path3992"
             d="m 564.97449,-868.85785 41.74552,0 0,70.47017 -41.74552,0 z"
             style="fill:#808080;fill-opacity:1;stroke:none"
             transform="matrix(0,1,-1,0,0,0)"
             inkscape:connector-curvature="0" />
        </g>
        <path
           inkscape:connector-curvature="0"
           id="path3994"
           d="m 812.74786,554.81558 c -0.0246,5.64665 -4.60985,10.21647 -10.26229,10.21647 l 0,6.37728 16.59375,0 0,-16.59375 -6.33146,0 z"
           style="fill:#808080;fill-opacity:1;stroke:none" />
        <path
           style="fill:#808080;fill-opacity:1;stroke:none"
           d="m 812.74786,616.94058 c -0.0246,-5.64665 -4.60985,-10.21647 -10.26229,-10.21647 l 0,-6.37728 16.59375,0 0,16.59375 -6.33146,0 z"
           id="path3996"
           inkscape:connector-curvature="0" />
        <path
           inkscape:connector-curvature="0"
           id="path3998"
           d="m 854.50453,554.78433 c 0.0246,5.64665 4.60985,10.21647 10.26229,10.21647 l 0,6.37728 -16.59375,0 0,-16.59375 6.33146,0 z"
           style="fill:#808080;fill-opacity:1;stroke:none" />
        <path
           style="fill:#808080;fill-opacity:1;stroke:none"
           d="m 854.47106,616.91469 c 0.0246,-5.64665 4.60985,-10.21647 10.26229,-10.21647 l 0,-6.37728 -16.59375,0 0,16.59375 6.33146,0 z"
           id="path4000"
           inkscape:connector-curvature="0" />
      </g>
      <g
         transform="translate(-122.66434,-7.5428064)"
         style="fill:#cccccc;stroke:none"
         id="g3871">
        <g
           style="fill:#cccccc;stroke:none"
           id="g3858">
          <path
             inkscape:connector-curvature="0"
             style="fill:#cccccc;fill-opacity:1;stroke:none"
             d="m 812.75,550.61218 41.74553,0 0,70.47017 -41.74553,0 z"
             id="rect3854" />
          <path
             inkscape:connector-curvature="0"
             transform="matrix(0,1,-1,0,0,0)"
             style="fill:#cccccc;fill-opacity:1;stroke:none"
             d="m 564.97449,-868.85785 41.74552,0 0,70.47017 -41.74552,0 z"
             id="rect3856" />
        </g>
        <path
           style="fill:#cccccc;fill-opacity:1;stroke:none"
           d="m 812.74786,554.81558 c -0.0246,5.64665 -4.60985,10.21647 -10.26229,10.21647 l 0,6.37728 16.59375,0 0,-16.59375 -6.33146,0 z"
           id="rect3843"
           inkscape:connector-curvature="0" />
        <path
           inkscape:connector-curvature="0"
           id="path3865"
           d="m 812.74786,616.94058 c -0.0246,-5.64665 -4.60985,-10.21647 -10.26229,-10.21647 l 0,-6.37728 16.59375,0 0,16.59375 -6.33146,0 z"
           style="fill:#cccccc;fill-opacity:1;stroke:none" />
        <path
           style="fill:#cccccc;fill-opacity:1;stroke:none"
           d="m 854.50453,554.78433 c 0.0246,5.64665 4.60985,10.21647 10.26229,10.21647 l 0,6.37728 -16.59375,0 0,-16.59375 6.33146,0 z"
           id="path3867"
           inkscape:connector-curvature="0" />
        <path
           inkscape:connector-curvature="0"
           id="path3869"
           d="m 854.47106,616.91469 c 0.0246,-5.64665 4.60985,-10.21647 10.26229,-10.21647 l 0,-6.37728 -16.59375,0 0,16.59375 6.33146,0 z"
           style="fill:#cccccc;fill-opacity:1;stroke:none" />
      </g>
    </g>
    <rect
       style="fill:#000000;fill-opacity:1"
       id="rect3880"
       width="35.245525"
       height="81.970169"
       x="813.23956"
       y="615.06927" />
    <g
       id="g3907"
       transform="matrix(1.2018161,0,0,1.2018161,-263.01329,-88.430658)"
       style="fill:#9f3f3f;stroke:none;fill-opacity:1">
      <path
         transform="translate(-7.4622855,402.36218)"
         d="m 931.96674,145.30254 c 0,7.90811 -6.4108,14.31891 -14.31891,14.31891 -7.90812,0 -14.31892,-6.4108 -14.31892,-14.31891 0,-7.90812 6.4108,-14.31892 14.31892,-14.31892 7.90811,0 14.31891,6.4108 14.31891,14.31892 z"
         sodipodi:ry="14.318913"
         sodipodi:rx="14.318913"
         sodipodi:cy="145.30254"
         sodipodi:cx="917.64783"
         id="path3886"
         style="fill:#9f3f3f;fill-opacity:1;stroke:none"
         sodipodi:type="arc" />
      <rect
         y="548.04926"
         x="895.91083"
         height="21.858437"
         width="28.549437"
         id="rect3888"
         style="fill:#9f3f3f;fill-opacity:1;stroke:none" />
      <g
         transform="translate(0,-8)"
         id="g3902"
         style="fill:#9f3f3f;stroke:none;fill-opacity:1">
        <rect
           style="fill:#9f3f3f;fill-opacity:1;stroke:none"
           id="rect3890"
           width="34.603416"
           height="4.4426379"
           x="892.86707"
           y="577.77148" />
        <path
           sodipodi:type="arc"
           style="fill:#9f3f3f;fill-opacity:1;stroke:none"
           id="path3894"
           sodipodi:cx="886.68982"
           sodipodi:cy="179.61931"
           sodipodi:rx="2.2318058"
           sodipodi:ry="2.2318058"
           d="m 888.92163,179.61931 c 0,1.23259 -0.99922,2.2318 -2.23181,2.2318 -1.23259,0 -2.23181,-0.99921 -2.23181,-2.2318 0,-1.23259 0.99922,-2.23181 2.23181,-2.23181 1.23259,0 2.23181,0.99922 2.23181,2.23181 z"
           transform="matrix(0.91201642,0,0,1,84.087994,400.37349)" />
        <path
           transform="matrix(0.91201642,0,0,1,118.93174,400.37349)"
           d="m 888.92163,179.61931 c 0,1.23259 -0.99922,2.2318 -2.23181,2.2318 -1.23259,0 -2.23181,-0.99921 -2.23181,-2.2318 0,-1.23259 0.99922,-2.23181 2.23181,-2.23181 1.23259,0 2.23181,0.99922 2.23181,2.23181 z"
           sodipodi:ry="2.2318058"
           sodipodi:rx="2.2318058"
           sodipodi:cy="179.61931"
           sodipodi:cx="886.68982"
           id="path3900"
           style="fill:#9f3f3f;fill-opacity:1;stroke:none"
           sodipodi:type="arc" />
      </g>
    </g>
    <path
       style="fill:none;stroke:#000000;stroke-width:0.94139755px;stroke-linecap:butt;stroke-linejoin:miter;stroke-opacity:1"
       d="m 836.79508,616.56326 c 0,0 0.3689,-15.40149 1.65594,-24.95687 1.28705,-9.55536 3.7422,-21.68238 3.7422,-21.68238 l -5.82842,9.73519 -1.72549,-9.73519 -3.56833,9.73519 -3.98559,-9.73519 -1.30822,9.73519 -6.24569,-9.73519 c 0,0 3.25697,10.9659 4.73315,21.68238 1.47617,10.7165 1.55165,24.95687 1.55165,24.95687"
       id="path3919"
       inkscape:connector-curvature="0"
       sodipodi:nodetypes="czccccccczc" />
    <path
       style="fill:#808080;fill-opacity:1;stroke:none"
       d="m 930.8438,577.91446 c -32.89505,0 -59.56255,26.6675 -59.56255,59.5625 0,32.895 26.6675,59.5625 59.56255,59.5625 27.1225,0 49.9895,-18.13599 57.1875,-42.9375 l -30.5625,0 -8.5,14.71875 -36.2188,0 -18.09375,-31.34375 18.09375,-31.375 36.2188,0 8.5,14.75 30.5625,0 c -7.198,-24.80151 -30.065,-42.9375 -57.1875,-42.9375 z"
       id="path3922"
       inkscape:connector-curvature="0" />
    <path
       style="fill:url(#radialGradient3898);fill-opacity:1;stroke:none"
       d="m 1047.3466,624.54298 -7.652,11.40134 c 0,0 -21.2391,-4.09943 -26.9998,-11.96941 -5.7607,-7.86998 -7.1186,-20.14794 -2.9339,-28.92423 4.1823,-8.77125 14.8074,-14.47641 24.4975,-16.31962 7.867,-1.49644 18.7216,-1.40731 24.1736,4.35432 1.5171,1.60316 2.8577,3.17925 1.279,7.76205 -1.5787,4.5828 -15.2939,7.95194 -17.3105,15.17324 -1.719,6.15563 4.9461,18.52231 4.9461,18.52231 z"
       id="path4042"
       inkscape:connector-curvature="0"
       sodipodi:nodetypes="ccsssszsc" />
    <path
       sodipodi:nodetypes="ccsssszsc"
       inkscape:connector-curvature="0"
       id="path4047"
       d="m 1054.7447,650.41095 7.6521,-11.40134 c 0,0 21.239,4.09943 26.9999,11.96943 5.7607,7.86996 7.1185,20.14793 2.9338,28.92416 -4.1822,8.77132 -14.8074,14.47645 -24.4975,16.31964 -7.867,1.49645 -18.7216,1.40734 -24.1738,-4.35429 -1.517,-1.60312 -2.8575,-3.17928 -1.2788,-7.76202 1.5787,-4.58284 15.2939,-7.95197 17.3105,-15.17327 1.7188,-6.15564 -4.9462,-18.52231 -4.9462,-18.52231 z"
       style="fill:url(#radialGradient3906);fill-opacity:1;stroke:none" />
    <path
       sodipodi:type="arc"
       style="fill:#9f3f3f;fill-opacity:1;stroke:none"
       id="path4036"
       sodipodi:cx="1120.75"
       sodipodi:cy="228.25"
       sodipodi:rx="21.75"
       sodipodi:ry="21.75"
       d="m 1142.5,228.25 c 0,12.01219 -9.7378,21.75 -21.75,21.75 -12.0122,0 -21.75,-9.73781 -21.75,-21.75 0,-12.01219 9.7378,-21.75 21.75,-21.75 12.0122,0 21.75,9.73781 21.75,21.75 z"
       transform="matrix(0.72463944,0,0,0.71091079,238.906,474.30963)" />
    <path
       sodipodi:type="arc"
       style="fill:#9f3f3f;fill-opacity:1;stroke:none"
       id="path4060"
       sodipodi:cx="792.66669"
       sodipodi:cy="420.8974"
       sodipodi:rx="53.033009"
       sodipodi:ry="53.033009"
       d="m 845.6997,420.8974 c 0,29.28932 -23.74369,53.03301 -53.03301,53.03301 -29.28932,0 -53.03301,-23.74369 -53.03301,-53.03301 0,-29.28932 23.74369,-53.03301 53.03301,-53.03301 29.28932,0 53.03301,23.74369 53.03301,53.03301 z"
       transform="matrix(1.13155,0,0,1.13155,-337.74549,160.76323)" />
    <path
       transform="matrix(0.89155,0,0,0.89155,-147.50548,261.77861)"
       d="m 845.6997,420.8974 c 0,29.28932 -23.74369,53.03301 -53.03301,53.03301 -29.28932,0 -53.03301,-23.74369 -53.03301,-53.03301 0,-29.28932 23.74369,-53.03301 53.03301,-53.03301 29.28932,0 53.03301,23.74369 53.03301,53.03301 z"
       sodipodi:ry="53.033009"
       sodipodi:rx="53.033009"
       sodipodi:cy="420.8974"
       sodipodi:cx="792.66669"
       id="path4062"
       style="fill:#000000;fill-opacity:1;stroke:none"
       sodipodi:type="arc" />
    <path
       inkscape:connector-curvature="0"
       style="fill:#808080;fill-opacity:1;stroke:#000000;stroke-opacity:1"
       d="m 561.6028,626.31093 c -19.3942,0 -35.667,13.30199 -40.2188,31.28125 7.2958,13.38055 21.4957,22.46875 37.8125,22.46875 1.8299,0 3.6366,-0.12218 5.4063,-0.34375 l 0,-53.28125 c -0.993,-0.0711 -1.9889,-0.125 -3,-0.125 z"
       id="path4123" />
    <path
       inkscape:connector-curvature="0"
       style="fill:#808080;fill-opacity:1;stroke:#000000;stroke-opacity:1"
       d="m 553.9778,627.27968 c -0.5563,0.82565 -1.1214,1.65448 -1.625,2.53125 -9.6088,16.72809 -6.2731,37.33376 6.875,50.25 18.0368,-0.0129 33.4571,-11.12984 39.8437,-26.875 l -45.0937,-25.90625 z"
       id="path4125" />
    <path
       inkscape:connector-curvature="0"
       style="fill:#808080;fill-opacity:1;stroke:#000000;stroke-opacity:1"
       d="m 593.4152,610.96718 -44.6562,27.09375 c 0.454,0.886 0.9133,1.76038 1.4375,2.625 9.7068,16.01084 28.5347,23.13103 45.7813,18.71875 3.9749,-6.51902 6.25,-14.17934 6.25,-22.375 0,-9.80143 -3.2968,-18.82854 -8.8126,-26.0625 z"
       id="path4127" />
    <path
       inkscape:connector-curvature="0"
       style="fill:#808080;fill-opacity:1;stroke:#000000;stroke-opacity:1"
       d="m 559.1965,593.99843 c -1.1885,0 -2.3672,0.0618 -3.5313,0.15625 l -0.1562,53.46875 c 0.9928,0.0737 1.9889,0.12236 3,0.125 18.5777,0.0485 34.3516,-12.12077 39.6875,-28.9375 -6.8586,-14.66021 -21.7424,-24.8125 -39,-24.8125 z"
       id="path4129" />
    <path
       inkscape:connector-curvature="0"
       style="fill:#808080;fill-opacity:1;stroke:#000000;stroke-width:1;stroke-opacity:1"
       d="m 559.1965,593.99843 c -17.2924,0 -32.1913,10.1983 -39.0313,24.90625 l 21.25,12.65625 c 5.9776,-3.33649 12.8558,-5.25 20.1876,-5.25 1.0111,0 2.007,0.0539 3,0.125 l 0,18.9375 1.7812,1.0625 c 0.5696,-0.8165 1.1072,-1.63155 1.625,-2.5 9.7365,-16.32934 6.9604,-36.65933 -5.5,-49.8125 -1.0925,-0.0831 -2.1987,-0.125 -3.3125,-0.125 z"
       id="path4131" />
    <path
       inkscape:connector-curvature="0"
       style="fill:#808080;fill-opacity:1;stroke:#000000;stroke-width:1;stroke-opacity:1"
       d="m 532.009,610.90468 c -2.5438,0.0394 -5.1006,0.2969 -7.625,0.8125 -5.1746,7.10303 -8.2188,15.84958 -8.2188,25.3125 0,7.4529 1.8863,14.45079 5.2188,20.5625 4.5466,-17.98101 20.8231,-31.28125 40.2188,-31.28125 1.0111,0 2.007,0.0539 3,0.125 l 0,9.46875 4.7187,-2.96875 c -0.4685,-0.87841 -0.9616,-1.76913 -1.5,-2.625 -8.0085,-12.73179 -21.7973,-19.62324 -35.8125,-19.40625 z"
       id="path4133" />
    <path
       transform="matrix(0.8660254,0.5,-0.5,0.8660254,100.15902,-6.9673)"
       style="fill:url(#radialGradient3890);fill-opacity:1;stroke:none"
       d="m 721.42567,340.28724 -11.33524,-5.11553 -1.23743,-12.37437 10.0978,-7.25884 11.33523,5.11554 1.23744,12.37437 z"
       id="path4135" />
  </g>
</svg>
